<mxfile host="app.diagrams.net" agent="Mozilla/5.0 (Macintosh; Intel Mac OS X 10_15_7) AppleWebKit/605.1.15 (KHTML, like Gecko) Version/18.0 Safari/605.1.15" version="24.7.16">
  <diagram name="Page-1" id="OdNACH37kYZbs-KTAWDx">
    <mxGraphModel dx="1194" dy="772" grid="1" gridSize="10" guides="1" tooltips="1" connect="1" arrows="1" fold="1" page="1" pageScale="1" pageWidth="827" pageHeight="1169" math="0" shadow="0">
      <root>
        <mxCell id="0" />
        <mxCell id="1" parent="0" />
        <mxCell id="otoWU3ZxkSg-Xk5UeFQL-1" value="HTTP Request" style="edgeStyle=none;shape=connector;rounded=0;orthogonalLoop=1;jettySize=auto;html=1;entryX=0;entryY=0.5;entryDx=0;entryDy=0;strokeColor=#3399FF;strokeWidth=2;align=center;verticalAlign=bottom;fontFamily=Helvetica;fontSize=11;fontColor=#FFFFFF;labelBackgroundColor=none;endArrow=classic;flowAnimation=0;" edge="1" parent="1" source="otoWU3ZxkSg-Xk5UeFQL-2" target="otoWU3ZxkSg-Xk5UeFQL-5">
          <mxGeometry relative="1" as="geometry" />
        </mxCell>
        <mxCell id="otoWU3ZxkSg-Xk5UeFQL-2" value="&lt;font color=&quot;#ffffff&quot;&gt;Client&lt;/font&gt;" style="rounded=1;whiteSpace=wrap;html=1;strokeColor=#3399FF;align=left;verticalAlign=top;fontFamily=Helvetica;fontSize=11;fontColor=default;labelBackgroundColor=none;fillColor=none;strokeWidth=2;" vertex="1" parent="1">
          <mxGeometry x="250" y="90" width="120" height="60" as="geometry" />
        </mxCell>
        <mxCell id="otoWU3ZxkSg-Xk5UeFQL-3" value="" style="verticalLabelPosition=bottom;html=1;verticalAlign=top;align=center;strokeColor=none;fillColor=#00BEF2;shape=mxgraph.azure.laptop;pointerEvents=1;rounded=1;fontFamily=Helvetica;fontSize=11;fontColor=default;labelBackgroundColor=default;" vertex="1" parent="1">
          <mxGeometry x="280" y="110" width="50" height="30" as="geometry" />
        </mxCell>
        <mxCell id="otoWU3ZxkSg-Xk5UeFQL-4" value="" style="verticalLabelPosition=bottom;html=1;verticalAlign=top;align=center;strokeColor=none;fillColor=#00BEF2;shape=mxgraph.azure.mobile;pointerEvents=1;rounded=1;fontFamily=Helvetica;fontSize=11;fontColor=default;labelBackgroundColor=default;" vertex="1" parent="1">
          <mxGeometry x="340" y="110" width="20" height="30" as="geometry" />
        </mxCell>
        <mxCell id="otoWU3ZxkSg-Xk5UeFQL-5" value="" style="rounded=1;whiteSpace=wrap;html=1;strokeColor=#3399FF;align=left;verticalAlign=top;fontFamily=Helvetica;fontSize=11;fontColor=default;labelBackgroundColor=none;fillColor=none;dashed=1;strokeWidth=2;" vertex="1" parent="1">
          <mxGeometry x="520" y="90" width="160" height="60" as="geometry" />
        </mxCell>
        <mxCell id="otoWU3ZxkSg-Xk5UeFQL-6" value="&lt;p style=&quot;line-height: 110%;&quot;&gt;Api Servers&lt;/p&gt;" style="sketch=0;pointerEvents=1;shadow=0;dashed=0;html=1;strokeColor=none;fillColor=#505050;labelPosition=center;verticalLabelPosition=bottom;verticalAlign=bottom;outlineConnect=0;align=center;shape=mxgraph.office.servers.server_farm;fillColor=#7FBA42;rounded=1;fontFamily=Helvetica;fontSize=11;fontColor=#FFFFFF;labelBackgroundColor=none;spacing=6;" vertex="1" parent="1">
          <mxGeometry x="540" y="95.5" width="40" height="34.5" as="geometry" />
        </mxCell>
        <mxCell id="otoWU3ZxkSg-Xk5UeFQL-7" value="&lt;font color=&quot;#ffffff&quot;&gt;Rate limiter&lt;/font&gt;" style="rounded=1;whiteSpace=wrap;html=1;strokeColor=#FFFFFF;align=center;verticalAlign=middle;fontFamily=Helvetica;fontSize=11;fontColor=default;labelBackgroundColor=none;fillColor=none;strokeWidth=1;" vertex="1" parent="1">
          <mxGeometry x="600" y="105" width="60" height="30" as="geometry" />
        </mxCell>
        <mxCell id="otoWU3ZxkSg-Xk5UeFQL-8" value="" style="edgeStyle=none;shape=connector;rounded=0;orthogonalLoop=1;jettySize=auto;html=1;strokeColor=#3399FF;strokeWidth=2;align=center;verticalAlign=bottom;fontFamily=Helvetica;fontSize=11;fontColor=#FFFFFF;labelBackgroundColor=none;endArrow=classic;flowAnimation=0;entryX=0;entryY=0.5;entryDx=0;entryDy=0;" edge="1" parent="1" source="otoWU3ZxkSg-Xk5UeFQL-9" target="otoWU3ZxkSg-Xk5UeFQL-14">
          <mxGeometry relative="1" as="geometry">
            <mxPoint x="430" y="260" as="targetPoint" />
          </mxGeometry>
        </mxCell>
        <mxCell id="otoWU3ZxkSg-Xk5UeFQL-9" value="&lt;font color=&quot;#ffffff&quot;&gt;Client&lt;/font&gt;" style="rounded=1;whiteSpace=wrap;html=1;strokeColor=#3399FF;align=left;verticalAlign=top;fontFamily=Helvetica;fontSize=11;fontColor=default;labelBackgroundColor=none;fillColor=none;strokeWidth=2;" vertex="1" parent="1">
          <mxGeometry x="250" y="230" width="120" height="60" as="geometry" />
        </mxCell>
        <mxCell id="otoWU3ZxkSg-Xk5UeFQL-10" value="" style="verticalLabelPosition=bottom;html=1;verticalAlign=top;align=center;strokeColor=none;fillColor=#00BEF2;shape=mxgraph.azure.laptop;pointerEvents=1;rounded=1;fontFamily=Helvetica;fontSize=11;fontColor=default;labelBackgroundColor=default;" vertex="1" parent="1">
          <mxGeometry x="280" y="250" width="50" height="30" as="geometry" />
        </mxCell>
        <mxCell id="otoWU3ZxkSg-Xk5UeFQL-11" value="" style="verticalLabelPosition=bottom;html=1;verticalAlign=top;align=center;strokeColor=none;fillColor=#00BEF2;shape=mxgraph.azure.mobile;pointerEvents=1;rounded=1;fontFamily=Helvetica;fontSize=11;fontColor=default;labelBackgroundColor=default;" vertex="1" parent="1">
          <mxGeometry x="340" y="250" width="20" height="30" as="geometry" />
        </mxCell>
        <mxCell id="otoWU3ZxkSg-Xk5UeFQL-12" value="" style="rounded=1;whiteSpace=wrap;html=1;strokeColor=#3399FF;align=left;verticalAlign=top;fontFamily=Helvetica;fontSize=11;fontColor=default;labelBackgroundColor=none;fillColor=none;dashed=1;strokeWidth=2;" vertex="1" parent="1">
          <mxGeometry x="600" y="230" width="80" height="60" as="geometry" />
        </mxCell>
        <mxCell id="otoWU3ZxkSg-Xk5UeFQL-13" value="&lt;p style=&quot;line-height: 110%;&quot;&gt;Api Servers&lt;/p&gt;" style="sketch=0;pointerEvents=1;shadow=0;dashed=0;html=1;strokeColor=none;fillColor=#505050;labelPosition=center;verticalLabelPosition=bottom;verticalAlign=bottom;outlineConnect=0;align=center;shape=mxgraph.office.servers.server_farm;fillColor=#7FBA42;rounded=1;fontFamily=Helvetica;fontSize=11;fontColor=#FFFFFF;labelBackgroundColor=none;spacing=6;" vertex="1" parent="1">
          <mxGeometry x="620" y="235.5" width="40" height="34.5" as="geometry" />
        </mxCell>
        <mxCell id="otoWU3ZxkSg-Xk5UeFQL-14" value="&lt;font color=&quot;#ffffff&quot;&gt;Rate limiter&lt;/font&gt;" style="rounded=0;html=1;strokeColor=#FFFFFF;align=center;verticalAlign=bottom;fontFamily=Helvetica;fontSize=11;fontColor=default;labelBackgroundColor=none;fillColor=none;spacingLeft=0;spacingBottom=-21;" vertex="1" parent="1">
          <mxGeometry x="480" y="185" width="10" height="150" as="geometry" />
        </mxCell>
        <mxCell id="otoWU3ZxkSg-Xk5UeFQL-15" value="" style="edgeStyle=none;shape=connector;rounded=0;orthogonalLoop=1;jettySize=auto;html=1;strokeColor=#3399FF;strokeWidth=2;align=center;verticalAlign=bottom;fontFamily=Helvetica;fontSize=11;fontColor=#FFFFFF;labelBackgroundColor=none;endArrow=classic;flowAnimation=0;entryX=0;entryY=0.5;entryDx=0;entryDy=0;exitX=1;exitY=0.5;exitDx=0;exitDy=0;" edge="1" parent="1" source="otoWU3ZxkSg-Xk5UeFQL-14" target="otoWU3ZxkSg-Xk5UeFQL-12">
          <mxGeometry relative="1" as="geometry">
            <mxPoint x="560" y="340" as="sourcePoint" />
            <mxPoint x="650" y="340" as="targetPoint" />
          </mxGeometry>
        </mxCell>
        <mxCell id="otoWU3ZxkSg-Xk5UeFQL-16" value="" style="edgeStyle=none;shape=connector;rounded=0;orthogonalLoop=1;jettySize=auto;html=1;strokeColor=#3399FF;strokeWidth=2;align=center;verticalAlign=bottom;fontFamily=Helvetica;fontSize=11;fontColor=#FFFFFF;labelBackgroundColor=none;endArrow=classic;flowAnimation=0;entryX=0;entryY=0.5;entryDx=0;entryDy=0;" edge="1" parent="1" source="otoWU3ZxkSg-Xk5UeFQL-17" target="otoWU3ZxkSg-Xk5UeFQL-23">
          <mxGeometry relative="1" as="geometry">
            <mxPoint x="423" y="445" as="targetPoint" />
          </mxGeometry>
        </mxCell>
        <mxCell id="otoWU3ZxkSg-Xk5UeFQL-17" value="&lt;font color=&quot;#ffffff&quot; style=&quot;font-size: 12px;&quot;&gt;Client&lt;/font&gt;" style="rounded=1;whiteSpace=wrap;html=1;strokeColor=#3399FF;align=left;verticalAlign=top;fontFamily=Helvetica;fontSize=12;fontColor=default;labelBackgroundColor=none;fillColor=none;strokeWidth=2;" vertex="1" parent="1">
          <mxGeometry x="180" y="410" width="130" height="80" as="geometry" />
        </mxCell>
        <mxCell id="otoWU3ZxkSg-Xk5UeFQL-18" value="" style="verticalLabelPosition=bottom;html=1;verticalAlign=top;align=center;strokeColor=none;fillColor=#00BEF2;shape=mxgraph.azure.laptop;pointerEvents=1;rounded=1;fontFamily=Helvetica;fontSize=11;fontColor=default;labelBackgroundColor=default;" vertex="1" parent="1">
          <mxGeometry x="210" y="430" width="60" height="45" as="geometry" />
        </mxCell>
        <mxCell id="otoWU3ZxkSg-Xk5UeFQL-19" value="" style="verticalLabelPosition=bottom;html=1;verticalAlign=top;align=center;strokeColor=none;fillColor=#00BEF2;shape=mxgraph.azure.mobile;pointerEvents=1;rounded=1;fontFamily=Helvetica;fontSize=11;fontColor=default;labelBackgroundColor=default;" vertex="1" parent="1">
          <mxGeometry x="280" y="445" width="20" height="30" as="geometry" />
        </mxCell>
        <mxCell id="otoWU3ZxkSg-Xk5UeFQL-20" value="" style="rounded=1;whiteSpace=wrap;html=1;strokeColor=#3399FF;align=left;verticalAlign=top;fontFamily=Helvetica;fontSize=11;fontColor=default;labelBackgroundColor=none;fillColor=none;dashed=1;strokeWidth=2;" vertex="1" parent="1">
          <mxGeometry x="690" y="420" width="80" height="60" as="geometry" />
        </mxCell>
        <mxCell id="otoWU3ZxkSg-Xk5UeFQL-21" value="&lt;p style=&quot;line-height: 110%;&quot;&gt;Api Servers&lt;/p&gt;" style="sketch=0;pointerEvents=1;shadow=0;dashed=0;html=1;strokeColor=none;fillColor=#505050;labelPosition=center;verticalLabelPosition=bottom;verticalAlign=bottom;outlineConnect=0;align=center;shape=mxgraph.office.servers.server_farm;fillColor=#7FBA42;rounded=1;fontFamily=Helvetica;fontSize=11;fontColor=#FFFFFF;labelBackgroundColor=none;spacing=6;" vertex="1" parent="1">
          <mxGeometry x="710" y="425.5" width="40" height="34.5" as="geometry" />
        </mxCell>
        <mxCell id="otoWU3ZxkSg-Xk5UeFQL-22" value="" style="edgeStyle=none;shape=connector;rounded=0;orthogonalLoop=1;jettySize=auto;html=1;strokeColor=#3399FF;strokeWidth=2;align=center;verticalAlign=bottom;fontFamily=Helvetica;fontSize=11;fontColor=#FFFFFF;labelBackgroundColor=none;endArrow=classic;flowAnimation=0;entryX=0;entryY=0.5;entryDx=0;entryDy=0;exitX=1;exitY=0.5;exitDx=0;exitDy=0;" edge="1" parent="1" source="otoWU3ZxkSg-Xk5UeFQL-23" target="otoWU3ZxkSg-Xk5UeFQL-20">
          <mxGeometry relative="1" as="geometry">
            <mxPoint x="580" y="445" as="sourcePoint" />
            <mxPoint x="740" y="525" as="targetPoint" />
          </mxGeometry>
        </mxCell>
        <mxCell id="otoWU3ZxkSg-Xk5UeFQL-23" value="Rate limiter middleware" style="shape=hexagon;perimeter=hexagonPerimeter2;html=1;fixedSize=1;rounded=0;strokeColor=#3399FF;align=center;verticalAlign=middle;fontFamily=Helvetica;fontSize=12;fontColor=#FFFFFF;labelBackgroundColor=none;fillColor=none;strokeWidth=2;whiteSpace=wrap;" vertex="1" parent="1">
          <mxGeometry x="440" y="420" width="90" height="60" as="geometry" />
        </mxCell>
        <mxCell id="otoWU3ZxkSg-Xk5UeFQL-24" value="Redis" style="image;sketch=0;aspect=fixed;html=1;points=[];align=center;fontSize=12;image=img/lib/mscae/Cache_Redis_Product.svg;rounded=1;strokeColor=#3399FF;verticalAlign=top;fontFamily=Helvetica;fontColor=#FFFFFF;labelBackgroundColor=none;fillColor=none;imageBackground=none;imageBorder=none;" vertex="1" parent="1">
          <mxGeometry x="705" y="520" width="50" height="42" as="geometry" />
        </mxCell>
        <mxCell id="otoWU3ZxkSg-Xk5UeFQL-25" value="" style="edgeStyle=none;shape=connector;rounded=0;orthogonalLoop=1;jettySize=auto;html=1;strokeColor=#3399FF;strokeWidth=2;align=center;verticalAlign=bottom;fontFamily=Helvetica;fontSize=11;fontColor=#FFFFFF;labelBackgroundColor=none;endArrow=classic;flowAnimation=0;entryX=0.054;entryY=0.527;entryDx=0;entryDy=0;exitX=1;exitY=0.5;exitDx=0;exitDy=0;entryPerimeter=0;startArrow=classic;startFill=1;" edge="1" parent="1" source="otoWU3ZxkSg-Xk5UeFQL-23" target="otoWU3ZxkSg-Xk5UeFQL-24">
          <mxGeometry relative="1" as="geometry">
            <mxPoint x="560" y="458" as="sourcePoint" />
            <mxPoint x="700" y="458" as="targetPoint" />
          </mxGeometry>
        </mxCell>
        <mxCell id="otoWU3ZxkSg-Xk5UeFQL-26" value="" style="edgeStyle=none;shape=connector;rounded=0;orthogonalLoop=1;jettySize=auto;html=1;strokeColor=#3399FF;strokeWidth=2;align=center;verticalAlign=bottom;fontFamily=Helvetica;fontSize=11;fontColor=#FFFFFF;labelBackgroundColor=none;endArrow=classic;flowAnimation=0;entryX=0;entryY=0.5;entryDx=0;entryDy=0;" edge="1" parent="1" source="otoWU3ZxkSg-Xk5UeFQL-27" target="otoWU3ZxkSg-Xk5UeFQL-34">
          <mxGeometry relative="1" as="geometry">
            <mxPoint x="423" y="885" as="targetPoint" />
          </mxGeometry>
        </mxCell>
        <mxCell id="otoWU3ZxkSg-Xk5UeFQL-27" value="&lt;font color=&quot;#ffffff&quot; style=&quot;font-size: 12px;&quot;&gt;Client&lt;/font&gt;" style="rounded=1;whiteSpace=wrap;html=1;strokeColor=#3399FF;align=left;verticalAlign=top;fontFamily=Helvetica;fontSize=12;fontColor=default;labelBackgroundColor=none;fillColor=none;strokeWidth=2;" vertex="1" parent="1">
          <mxGeometry x="180" y="850" width="130" height="80" as="geometry" />
        </mxCell>
        <mxCell id="otoWU3ZxkSg-Xk5UeFQL-28" value="" style="verticalLabelPosition=bottom;html=1;verticalAlign=top;align=center;strokeColor=none;fillColor=#00BEF2;shape=mxgraph.azure.laptop;pointerEvents=1;rounded=1;fontFamily=Helvetica;fontSize=11;fontColor=default;labelBackgroundColor=default;" vertex="1" parent="1">
          <mxGeometry x="210" y="870" width="60" height="45" as="geometry" />
        </mxCell>
        <mxCell id="otoWU3ZxkSg-Xk5UeFQL-29" value="" style="verticalLabelPosition=bottom;html=1;verticalAlign=top;align=center;strokeColor=none;fillColor=#00BEF2;shape=mxgraph.azure.mobile;pointerEvents=1;rounded=1;fontFamily=Helvetica;fontSize=11;fontColor=default;labelBackgroundColor=default;" vertex="1" parent="1">
          <mxGeometry x="280" y="885" width="20" height="30" as="geometry" />
        </mxCell>
        <mxCell id="otoWU3ZxkSg-Xk5UeFQL-30" value="" style="rounded=1;whiteSpace=wrap;html=1;strokeColor=#3399FF;align=left;verticalAlign=top;fontFamily=Helvetica;fontSize=11;fontColor=default;labelBackgroundColor=none;fillColor=none;dashed=1;strokeWidth=2;" vertex="1" parent="1">
          <mxGeometry x="690" y="860" width="80" height="60" as="geometry" />
        </mxCell>
        <mxCell id="otoWU3ZxkSg-Xk5UeFQL-31" value="&lt;p style=&quot;line-height: 110%;&quot;&gt;Api Servers&lt;/p&gt;" style="sketch=0;pointerEvents=1;shadow=0;dashed=0;html=1;strokeColor=none;fillColor=#505050;labelPosition=center;verticalLabelPosition=bottom;verticalAlign=bottom;outlineConnect=0;align=center;shape=mxgraph.office.servers.server_farm;fillColor=#7FBA42;rounded=1;fontFamily=Helvetica;fontSize=11;fontColor=#FFFFFF;labelBackgroundColor=none;spacing=6;" vertex="1" parent="1">
          <mxGeometry x="710" y="865.5" width="40" height="34.5" as="geometry" />
        </mxCell>
        <mxCell id="otoWU3ZxkSg-Xk5UeFQL-32" value="" style="edgeStyle=none;shape=connector;rounded=0;orthogonalLoop=1;jettySize=auto;html=1;strokeColor=#3399FF;strokeWidth=2;align=center;verticalAlign=bottom;fontFamily=Helvetica;fontSize=11;fontColor=#FFFFFF;labelBackgroundColor=none;endArrow=classic;flowAnimation=0;entryX=0;entryY=0.5;entryDx=0;entryDy=0;exitX=1;exitY=0.5;exitDx=0;exitDy=0;" edge="1" parent="1" source="otoWU3ZxkSg-Xk5UeFQL-34" target="otoWU3ZxkSg-Xk5UeFQL-30">
          <mxGeometry relative="1" as="geometry">
            <mxPoint x="580" y="885" as="sourcePoint" />
            <mxPoint x="740" y="965" as="targetPoint" />
          </mxGeometry>
        </mxCell>
        <mxCell id="otoWU3ZxkSg-Xk5UeFQL-33" value="&lt;font style=&quot;font-size: 13px;&quot; color=&quot;#00cc66&quot;&gt;success&lt;/font&gt;" style="edgeLabel;html=1;align=center;verticalAlign=middle;resizable=0;points=[];rounded=1;strokeColor=#3399FF;fontFamily=Helvetica;fontSize=13;fontColor=default;labelBackgroundColor=none;fillColor=none;" connectable="0" vertex="1" parent="otoWU3ZxkSg-Xk5UeFQL-32">
          <mxGeometry x="0.1979" y="1" relative="1" as="geometry">
            <mxPoint y="-7" as="offset" />
          </mxGeometry>
        </mxCell>
        <mxCell id="otoWU3ZxkSg-Xk5UeFQL-34" value="Rate limiter middleware" style="shape=hexagon;perimeter=hexagonPerimeter2;html=1;fixedSize=1;rounded=0;strokeColor=#3399FF;align=center;verticalAlign=middle;fontFamily=Helvetica;fontSize=12;fontColor=#FFFFFF;labelBackgroundColor=none;fillColor=none;strokeWidth=2;whiteSpace=wrap;" vertex="1" parent="1">
          <mxGeometry x="440" y="860" width="90" height="60" as="geometry" />
        </mxCell>
        <mxCell id="otoWU3ZxkSg-Xk5UeFQL-35" value="Redis" style="image;sketch=0;aspect=fixed;html=1;points=[];align=center;fontSize=12;image=img/lib/mscae/Cache_Redis_Product.svg;rounded=1;strokeColor=#3399FF;verticalAlign=top;fontFamily=Helvetica;fontColor=#FFFFFF;labelBackgroundColor=none;fillColor=none;imageBackground=none;imageBorder=none;" vertex="1" parent="1">
          <mxGeometry x="705" y="960" width="50" height="42" as="geometry" />
        </mxCell>
        <mxCell id="otoWU3ZxkSg-Xk5UeFQL-36" value="" style="edgeStyle=none;shape=connector;rounded=0;orthogonalLoop=1;jettySize=auto;html=1;strokeColor=#3399FF;strokeWidth=2;align=center;verticalAlign=bottom;fontFamily=Helvetica;fontSize=11;fontColor=#FFFFFF;labelBackgroundColor=none;endArrow=classic;flowAnimation=0;entryX=0.054;entryY=0.527;entryDx=0;entryDy=0;exitX=1;exitY=0.5;exitDx=0;exitDy=0;entryPerimeter=0;startArrow=classic;startFill=1;" edge="1" parent="1" source="otoWU3ZxkSg-Xk5UeFQL-34" target="otoWU3ZxkSg-Xk5UeFQL-35">
          <mxGeometry relative="1" as="geometry">
            <mxPoint x="560" y="898" as="sourcePoint" />
            <mxPoint x="700" y="898" as="targetPoint" />
          </mxGeometry>
        </mxCell>
        <mxCell id="otoWU3ZxkSg-Xk5UeFQL-37" value="&lt;font style=&quot;font-size: 12px;&quot; color=&quot;#ffffff&quot;&gt;Cached rules&lt;/font&gt;" style="outlineConnect=0;dashed=0;verticalLabelPosition=bottom;verticalAlign=top;align=center;html=1;shape=mxgraph.aws3.cache_node;fillColor=#2E73B8;gradientColor=none;rounded=1;strokeColor=#3399FF;fontFamily=Helvetica;fontSize=11;fontColor=default;labelBackgroundColor=none;" vertex="1" parent="1">
          <mxGeometry x="700" y="750" width="60" height="63" as="geometry" />
        </mxCell>
        <mxCell id="otoWU3ZxkSg-Xk5UeFQL-38" value="" style="rounded=1;whiteSpace=wrap;html=1;strokeColor=#3399FF;align=left;verticalAlign=top;fontFamily=Helvetica;fontSize=11;fontColor=default;labelBackgroundColor=none;fillColor=none;dashed=1;strokeWidth=2;" vertex="1" parent="1">
          <mxGeometry x="820" y="753" width="80" height="60" as="geometry" />
        </mxCell>
        <mxCell id="otoWU3ZxkSg-Xk5UeFQL-39" value="&lt;p style=&quot;line-height: 110%;&quot;&gt;Workers&lt;/p&gt;" style="sketch=0;pointerEvents=1;shadow=0;dashed=0;html=1;strokeColor=none;fillColor=#505050;labelPosition=center;verticalLabelPosition=bottom;verticalAlign=bottom;outlineConnect=0;align=center;shape=mxgraph.office.servers.server_farm;fillColor=#7FBA42;rounded=1;fontFamily=Helvetica;fontSize=11;fontColor=#FFFFFF;labelBackgroundColor=none;spacing=6;" vertex="1" parent="1">
          <mxGeometry x="840" y="758.5" width="40" height="34.5" as="geometry" />
        </mxCell>
        <mxCell id="otoWU3ZxkSg-Xk5UeFQL-40" style="edgeStyle=none;shape=connector;rounded=0;orthogonalLoop=1;jettySize=auto;html=1;exitX=1;exitY=0.5;exitDx=0;exitDy=0;entryX=0;entryY=0.5;entryDx=0;entryDy=0;entryPerimeter=0;strokeColor=#3399FF;strokeWidth=2;align=center;verticalAlign=middle;fontFamily=Helvetica;fontSize=11;fontColor=default;labelBackgroundColor=none;endArrow=classic;flowAnimation=0;" edge="1" parent="1" source="otoWU3ZxkSg-Xk5UeFQL-34" target="otoWU3ZxkSg-Xk5UeFQL-37">
          <mxGeometry relative="1" as="geometry" />
        </mxCell>
        <mxCell id="otoWU3ZxkSg-Xk5UeFQL-41" style="edgeStyle=none;shape=connector;rounded=0;orthogonalLoop=1;jettySize=auto;html=1;exitX=0;exitY=0.5;exitDx=0;exitDy=0;entryX=1;entryY=0.5;entryDx=0;entryDy=0;entryPerimeter=0;strokeColor=#3399FF;strokeWidth=2;align=center;verticalAlign=middle;fontFamily=Helvetica;fontSize=11;fontColor=default;labelBackgroundColor=none;endArrow=classic;flowAnimation=0;" edge="1" parent="1" source="otoWU3ZxkSg-Xk5UeFQL-38" target="otoWU3ZxkSg-Xk5UeFQL-37">
          <mxGeometry relative="1" as="geometry">
            <mxPoint x="540" y="900" as="sourcePoint" />
            <mxPoint x="710" y="792" as="targetPoint" />
          </mxGeometry>
        </mxCell>
        <mxCell id="otoWU3ZxkSg-Xk5UeFQL-42" value="&lt;font color=&quot;#ffffff&quot; style=&quot;font-size: 13px;&quot;&gt;Rules&lt;/font&gt;" style="rounded=1;whiteSpace=wrap;html=1;strokeColor=#3399FF;align=center;verticalAlign=middle;fontFamily=Helvetica;fontSize=13;fontColor=default;labelBackgroundColor=none;fillColor=none;strokeWidth=2;" vertex="1" parent="1">
          <mxGeometry x="820" y="650" width="80" height="50" as="geometry" />
        </mxCell>
        <mxCell id="otoWU3ZxkSg-Xk5UeFQL-43" style="edgeStyle=none;shape=connector;rounded=0;orthogonalLoop=1;jettySize=auto;html=1;exitX=0.5;exitY=0;exitDx=0;exitDy=0;entryX=0.5;entryY=1;entryDx=0;entryDy=0;strokeColor=#3399FF;strokeWidth=2;align=center;verticalAlign=middle;fontFamily=Helvetica;fontSize=11;fontColor=default;labelBackgroundColor=none;endArrow=classic;flowAnimation=0;" edge="1" parent="1" source="otoWU3ZxkSg-Xk5UeFQL-38" target="otoWU3ZxkSg-Xk5UeFQL-42">
          <mxGeometry relative="1" as="geometry">
            <mxPoint x="830" y="793" as="sourcePoint" />
            <mxPoint x="770" y="792" as="targetPoint" />
          </mxGeometry>
        </mxCell>
        <mxCell id="otoWU3ZxkSg-Xk5UeFQL-44" value="&lt;font&gt;429: too many requests&lt;/font&gt;" style="edgeStyle=orthogonalEdgeStyle;shape=connector;rounded=0;orthogonalLoop=1;jettySize=auto;html=1;exitX=0.5;exitY=1;exitDx=0;exitDy=0;entryX=0.5;entryY=1;entryDx=0;entryDy=0;strokeColor=#FF0800;strokeWidth=2;align=center;verticalAlign=top;fontFamily=Helvetica;fontSize=11;fontColor=#FF0800;labelBackgroundColor=none;endArrow=classic;flowAnimation=0;" edge="1" parent="1" source="otoWU3ZxkSg-Xk5UeFQL-34" target="otoWU3ZxkSg-Xk5UeFQL-27">
          <mxGeometry relative="1" as="geometry">
            <mxPoint x="320" y="1128" as="sourcePoint" />
            <mxPoint x="490" y="1020" as="targetPoint" />
            <Array as="points">
              <mxPoint x="485" y="1068" />
              <mxPoint x="245" y="1068" />
            </Array>
          </mxGeometry>
        </mxCell>
        <mxCell id="otoWU3ZxkSg-Xk5UeFQL-45" value="Request dropped" style="verticalLabelPosition=bottom;verticalAlign=top;html=1;shape=mxgraph.basic.drop;rounded=1;strokeColor=#FFFFFF;align=center;fontFamily=Helvetica;fontSize=11;fontColor=#FFFFFF;labelBackgroundColor=none;fillColor=none;strokeWidth=2;" vertex="1" parent="1">
          <mxGeometry x="712.5" y="1050" width="35" height="50" as="geometry" />
        </mxCell>
        <mxCell id="otoWU3ZxkSg-Xk5UeFQL-46" value="" style="endArrow=classic;html=1;rounded=0;strokeColor=#FF0800;strokeWidth=2;align=center;verticalAlign=middle;fontFamily=Helvetica;fontSize=11;fontColor=default;labelBackgroundColor=none;edgeStyle=none;flowAnimation=0;entryX=0.214;entryY=0.323;entryDx=0;entryDy=0;entryPerimeter=0;dashed=1;dashPattern=8 8;" edge="1" parent="1" target="otoWU3ZxkSg-Xk5UeFQL-45">
          <mxGeometry width="50" height="50" relative="1" as="geometry">
            <mxPoint x="492" y="1068" as="sourcePoint" />
            <mxPoint x="520" y="1010" as="targetPoint" />
          </mxGeometry>
        </mxCell>
        <mxCell id="otoWU3ZxkSg-Xk5UeFQL-47" value="&lt;span style=&quot;&quot;&gt;&lt;font color=&quot;#ffffff&quot;&gt;option 1&lt;/font&gt;&lt;/span&gt;" style="edgeLabel;html=1;align=center;verticalAlign=bottom;resizable=0;points=[];labelBackgroundColor=none;" connectable="0" vertex="1" parent="otoWU3ZxkSg-Xk5UeFQL-46">
          <mxGeometry x="0.0565" relative="1" as="geometry">
            <mxPoint as="offset" />
          </mxGeometry>
        </mxCell>
        <mxCell id="otoWU3ZxkSg-Xk5UeFQL-48" value="Message queue" style="sketch=0;aspect=fixed;pointerEvents=1;shadow=0;dashed=0;html=1;strokeColor=none;labelPosition=center;verticalLabelPosition=bottom;verticalAlign=top;align=center;fillColor=#3399FF;shape=mxgraph.azure.queue_generic;rounded=1;fontFamily=Helvetica;fontSize=11;fontColor=#FFFFFF;labelBackgroundColor=none;" vertex="1" parent="1">
          <mxGeometry x="671.67" y="1140" width="116.67" height="35" as="geometry" />
        </mxCell>
        <mxCell id="otoWU3ZxkSg-Xk5UeFQL-49" value="" style="endArrow=classic;html=1;rounded=0;strokeColor=#FF0800;strokeWidth=2;align=center;verticalAlign=middle;fontFamily=Helvetica;fontSize=11;fontColor=default;labelBackgroundColor=none;edgeStyle=none;flowAnimation=0;entryX=0;entryY=0.5;entryDx=0;entryDy=0;entryPerimeter=0;dashed=1;dashPattern=8 8;" edge="1" parent="1" target="otoWU3ZxkSg-Xk5UeFQL-48">
          <mxGeometry width="50" height="50" relative="1" as="geometry">
            <mxPoint x="480" y="1068" as="sourcePoint" />
            <mxPoint x="730" y="1076" as="targetPoint" />
          </mxGeometry>
        </mxCell>
        <mxCell id="otoWU3ZxkSg-Xk5UeFQL-50" value="option 2" style="edgeLabel;html=1;align=center;verticalAlign=bottom;resizable=0;points=[];fontColor=#FFFFFF;labelBackgroundColor=none;spacingTop=0;" connectable="0" vertex="1" parent="otoWU3ZxkSg-Xk5UeFQL-49">
          <mxGeometry x="0.3378" relative="1" as="geometry">
            <mxPoint x="2" y="-8" as="offset" />
          </mxGeometry>
        </mxCell>
        <mxCell id="otoWU3ZxkSg-Xk5UeFQL-51" value="&lt;font color=&quot;#ff0800&quot;&gt;rate limited&amp;nbsp;&lt;/font&gt;" style="text;html=1;align=center;verticalAlign=middle;whiteSpace=wrap;rounded=0;" vertex="1" parent="1">
          <mxGeometry x="490" y="948" width="72" height="30" as="geometry" />
        </mxCell>
      </root>
    </mxGraphModel>
  </diagram>
</mxfile>
